<svg width="23" height="20" viewBox="0 0 23 20" fill="none" xmlns="http://www.w3.org/2000/svg">
<path d="M11.5 4.49999C14.26 4.49999 16.5 6.73999 16.5 9.49999C16.5 10.15 16.37 10.76 16.14 11.33L19.06 14.25C20.57 12.99 21.76 11.36 22.49 9.49999C20.76 5.10999 16.49 1.99999 11.49 1.99999C10.09 1.99999 8.75 2.24999 7.51 2.69999L9.67 4.85999C10.24 4.62999 10.85 4.49999 11.5 4.49999ZM1.5 1.76999L3.78 4.04999L4.24 4.50999C2.58 5.79999 1.28 7.51999 0.5 9.49999C2.23 13.89 6.5 17 11.5 17C13.05 17 14.53 16.7 15.88 16.16L16.3 16.58L19.23 19.5L20.5 18.23L2.77 0.499989L1.5 1.76999ZM7.03 7.29999L8.58 8.84999C8.53 9.05999 8.5 9.27999 8.5 9.49999C8.5 11.16 9.84 12.5 11.5 12.5C11.72 12.5 11.94 12.47 12.15 12.42L13.7 13.97C13.03 14.3 12.29 14.5 11.5 14.5C8.74 14.5 6.5 12.26 6.5 9.49999C6.5 8.70999 6.7 7.96999 7.03 7.29999ZM11.34 6.51999L14.49 9.66999L14.51 9.50999C14.51 7.84999 13.17 6.50999 11.51 6.50999L11.34 6.51999Z" fill="black" fill-opacity="0.54"/>
</svg>
